<svg xmlns="http://www.w3.org/2000/svg" width="148" height="44" fill="none"><path fill="#1D1D1D" d="M139.514 29.39c-1.353 0-2.518-.274-3.494-.822a5.631 5.631 0 0 1-2.243-2.346c-.526-1.017-.788-2.218-.788-3.605 0-1.353.262-2.54.788-3.563a5.822 5.822 0 0 1 2.217-2.389c.959-.57 2.084-.856 3.374-.856.868 0 1.676.14 2.424.42a5.37 5.37 0 0 1 1.969 1.241c.565.554 1.005 1.25 1.319 2.09.314.833.471 1.81.471 2.928v1.002h-11.106v-2.26h7.672c0-.526-.114-.991-.343-1.396a2.452 2.452 0 0 0-.95-.95c-.4-.235-.865-.352-1.396-.352-.554 0-1.044.128-1.473.385a2.708 2.708 0 0 0-.993 1.02c-.24.422-.362.893-.368 1.412v2.15c0 .65.12 1.213.359 1.687.246.473.591.839 1.037 1.096.445.256.973.385 1.584.385a3.45 3.45 0 0 0 1.113-.171c.337-.115.625-.286.865-.514.24-.229.422-.508.548-.84l3.374.223a4.614 4.614 0 0 1-1.054 2.124c-.525.6-1.204 1.067-2.038 1.404-.827.331-1.784.497-2.868.497zm-8.916-17.794v17.538h-3.648V11.596h3.648zm-18.91 17.538V11.596h3.648v6.594h.112a4.81 4.81 0 0 1 .693-1.079 3.65 3.65 0 0 1 1.199-.925c.497-.251 1.113-.377 1.85-.377.959 0 1.843.252 2.654.754.811.497 1.459 1.247 1.944 2.252.485 1 .728 2.252.728 3.76 0 1.466-.237 2.705-.711 3.716-.468 1.004-1.107 1.766-1.918 2.286-.805.514-1.707.77-2.706.77-.708 0-1.31-.116-1.807-.35a3.735 3.735 0 0 1-1.207-.883 4.459 4.459 0 0 1-.719-1.087h-.163v2.107h-3.597zm3.571-6.577c0 .782.109 1.464.326 2.047.216.582.53 1.036.941 1.361.411.32.911.48 1.499.48.594 0 1.096-.163 1.507-.488.411-.332.722-.788.933-1.37.217-.588.326-1.265.326-2.03 0-.76-.106-1.427-.317-2.004-.211-.576-.522-1.027-.933-1.353-.411-.325-.917-.488-1.516-.488-.594 0-1.096.157-1.507.471-.405.314-.717.76-.933 1.336-.217.577-.326 1.256-.326 2.038zm-13.876 6.824c-.839 0-1.587-.145-2.244-.436a3.61 3.61 0 0 1-1.558-1.31c-.377-.583-.565-1.308-.565-2.176 0-.73.134-1.344.402-1.84a3.26 3.26 0 0 1 1.096-1.2c.463-.302.988-.53 1.576-.684a11.995 11.995 0 0 1 1.866-.326c.765-.08 1.382-.154 1.85-.223.468-.074.808-.182 1.019-.325.211-.143.317-.354.317-.634v-.05c0-.543-.171-.963-.514-1.26-.337-.297-.816-.445-1.438-.445-.657 0-1.179.146-1.567.437a2.003 2.003 0 0 0-.771 1.079l-3.374-.274c.171-.8.508-1.49 1.01-2.073.503-.587 1.15-1.038 1.944-1.352.799-.32 1.724-.48 2.775-.48.73 0 1.43.086 2.098.257.673.171 1.27.437 1.789.796.525.36.939.822 1.242 1.387.302.56.454 1.23.454 2.013v8.871h-3.46v-1.824h-.102a3.726 3.726 0 0 1-.848 1.088c-.354.308-.779.55-1.276.728-.497.17-1.07.256-1.721.256zm1.044-2.517c.537 0 1.011-.106 1.422-.317.411-.217.733-.508.968-.873.234-.366.351-.78.351-1.242v-1.396a1.985 1.985 0 0 1-.471.206 8.544 8.544 0 0 1-.66.162c-.245.046-.491.089-.736.129l-.668.094a4.52 4.52 0 0 0-1.122.3c-.32.137-.568.322-.745.556-.177.229-.265.514-.265.857 0 .496.18.876.539 1.139.366.256.828.385 1.387.385zm-20.054 7.201V15.98h3.596v2.21h.163c.16-.355.391-.714.694-1.08.308-.37.707-.679 1.198-.924.497-.251 1.114-.377 1.85-.377.96 0 1.844.251 2.654.754.811.496 1.46 1.247 1.944 2.252.486.999.728 2.252.728 3.759 0 1.467-.237 2.706-.71 3.716-.469 1.005-1.108 1.767-1.919 2.286-.805.514-1.706.771-2.706.771-.707 0-1.31-.117-1.806-.351a3.735 3.735 0 0 1-1.208-.882 4.475 4.475 0 0 1-.719-1.088h-.111v7.04h-3.648zm3.57-11.508c0 .782.109 1.464.326 2.046.217.582.53 1.036.942 1.362.41.32.91.48 1.498.48.594 0 1.096-.163 1.507-.489.412-.331.723-.788.934-1.37.217-.588.325-1.264.325-2.03 0-.759-.105-1.427-.316-2.003-.212-.577-.523-1.028-.934-1.353-.41-.325-.916-.488-1.516-.488-.593 0-1.096.157-1.507.47-.405.315-.716.76-.933 1.337-.217.576-.325 1.256-.325 2.038zm-13.807 6.824c-.84 0-1.587-.145-2.244-.436a3.611 3.611 0 0 1-1.558-1.31c-.377-.583-.566-1.308-.566-2.176 0-.73.135-1.344.403-1.84a3.26 3.26 0 0 1 1.096-1.2c.463-.302.988-.53 1.576-.684a12.002 12.002 0 0 1 1.866-.326c.765-.08 1.382-.154 1.85-.223.468-.074.808-.182 1.019-.325.211-.143.317-.354.317-.634v-.05c0-.543-.171-.963-.514-1.26-.337-.297-.816-.445-1.439-.445-.656 0-1.178.146-1.566.437a2.01 2.01 0 0 0-.771 1.079l-3.374-.274c.171-.8.508-1.49 1.01-2.073.503-.587 1.15-1.038 1.944-1.352.8-.32 1.724-.48 2.775-.48.73 0 1.43.086 2.098.257a5.49 5.49 0 0 1 1.79.796c.524.36.938.822 1.24 1.387.303.56.455 1.23.455 2.013v8.871h-3.46v-1.824h-.102a3.712 3.712 0 0 1-.848 1.088c-.354.308-.78.55-1.276.728-.497.17-1.07.256-1.721.256zm1.044-2.517c.537 0 1.01-.106 1.422-.317.41-.217.733-.508.968-.873.234-.366.35-.78.35-1.242v-1.396a1.953 1.953 0 0 1-.47.206 8.594 8.594 0 0 1-.66.162c-.245.046-.49.089-.736.129l-.668.094a4.513 4.513 0 0 0-1.122.3c-.32.137-.568.322-.745.556-.177.229-.265.514-.265.857 0 .496.18.876.54 1.139.365.256.827.385 1.386.385zm-7.385-9.128h-3.75a3.669 3.669 0 0 0-.42-1.293 3.289 3.289 0 0 0-.814-.976 3.58 3.58 0 0 0-1.147-.617 4.387 4.387 0 0 0-1.396-.214c-.908 0-1.699.226-2.372.677-.674.445-1.196 1.096-1.567 1.952-.371.85-.557 1.884-.557 3.1 0 1.25.186 2.3.557 3.15.377.851.902 1.494 1.575 1.928.674.433 1.453.65 2.338.65.497 0 .956-.065 1.379-.197a3.623 3.623 0 0 0 1.139-.573 3.32 3.32 0 0 0 .822-.934c.222-.365.377-.782.462-1.25l3.75.017a6.999 6.999 0 0 1-2.278 4.324c-.644.583-1.415 1.045-2.311 1.388-.89.337-1.898.505-3.023.505-1.564 0-2.963-.354-4.196-1.062-1.227-.708-2.197-1.732-2.911-3.074-.708-1.341-1.062-2.965-1.062-4.872 0-1.913.36-3.54 1.08-4.881.718-1.342 1.694-2.364 2.928-3.066 1.233-.708 2.62-1.062 4.161-1.062a8.98 8.98 0 0 1 2.826.429 7.164 7.164 0 0 1 2.32 1.25 6.43 6.43 0 0 1 1.645 1.995c.428.788.702 1.69.822 2.706z"/><g clip-path="url(#a)" filter="url(#b)"><path fill="url(#c)" fill-rule="evenodd" d="M9.653 4.421C16.05.29 22.843.008 29.933 2.967c-3.272 6.793-6.974 13.025-13.966 16.43C10.959 21.843 5.587 22.42 0 22.42c.182-7.735 3.24-13.85 9.653-18zm15.95 32.05c3.967.248 7.868-.115 11.819-1.487-3.918 5.305-11.934 9.553-21.157 7.487-7.786-1.752-13.24-8-14.695-12.876l.168.056.07.023c.306.101.593.196.87.301l7.785 2.976c4.892 1.867 9.9 3.19 15.14 3.52zM.595 27.363c.073.078.143.167.213.256.168.215.337.43.547.488l.54.142c3.786.994 7.558 1.984 11.361 2.9 4.347 1.057 8.76 1.603 13.256 1.438 4.992-.182 9.653-1.538 14.017-3.901.231-.116.512-.33.562-.562.252-1.081.478-2.17.703-3.256l.256-1.224-.116-.066a3.666 3.666 0 0 1-.116-.066c-.231.132-.467.26-.702.389-.236.128-.471.256-.703.388-4 2.38-8.182 4.281-12.81 5.074-4.562.76-9.107.662-13.653-.033-2.716-.423-5.418-.904-8.124-1.386a778.7 778.7 0 0 0-4.24-.746 6.468 6.468 0 0 0-.528-.07C.97 27.12.882 27.11.793 27.1c-.066.1-.132.182-.198.264zM38.748 15.2c.553-.428 1.119-.866 1.698-1.324.116.392.23.762.34 1.116.25.809.474 1.537.636 2.272.066.232-.15.678-.38.827-.826.574-1.662 1.124-2.496 1.674a132 132 0 0 0-2.1 1.4c-4.975 3.405-10.413 5.537-16.462 6-3.753.281-7.472.133-11.207-.248l-3.847-.42-.004-.001-3.852-.422-.122-.014c-.344-.037-.728-.078-.522-.696.103 0 .194.004.28.008.078.004.153.008.232.008 1.42.057 2.84.133 4.258.208 3.087.164 6.171.327 9.263.304 7.917-.066 14.876-2.843 20.909-7.983 1.07-.924 2.193-1.793 3.376-2.709zm-1.029-5.902c-.267-.31-.53-.623-.804-.949-.268-.319-.546-.65-.849-1.002l-.905 1.108c-.626.765-1.228 1.502-1.822 2.231-2.248 2.793-4.595 5.488-7.488 7.653-4.05 3.025-8.628 4.76-13.62 5.24-2.597.26-5.21.308-7.823.357-1.046.02-2.091.04-3.135.072-.242.011-.476.008-.713.004-.12-.002-.24-.004-.362-.004-.008.05-.012.104-.016.157a1.83 1.83 0 0 1-.017.157l.12.031c.158.043.317.085.475.085 4.232.149 8.48.298 12.711-.165 6.926-.744 12.942-3.438 17.884-8.364 1.568-1.568 3.1-3.18 4.662-4.825.563-.591 1.129-1.187 1.702-1.786zm-5.21-4.803c.203.136.418.28.698.456a272.27 272.27 0 0 0-1.73 2.508c-1.197 1.75-2.383 3.482-3.659 5.161-3.206 4.198-7.306 7.207-12.347 8.86-4.893 1.603-9.934 1.834-15.008 1.818-.048 0-.104-.026-.162-.052a1.663 1.663 0 0 0-.07-.031c.199-.149.38-.165.562-.182.792-.047 1.583-.086 2.375-.125 1.984-.098 3.966-.196 5.94-.42 4.264-.496 8.247-1.901 11.801-4.347 3.504-2.43 6.132-5.637 8.38-9.207.607-.957 1.189-1.92 1.776-2.893.357-.591.715-1.186 1.084-1.785.123.08.24.159.36.24z" clip-rule="evenodd"/></g><defs><linearGradient id="c" x1="42.05" x2="0" y1="22" y2="22" gradientUnits="userSpaceOnUse"><stop stop-color="#AD6DF8"/><stop offset="1" stop-color="#923CF6"/></linearGradient><clipPath id="a"><path fill="#fff" d="M42.05 1H0v42h42.05z"/></clipPath><filter id="b" width="42.05" height="44.009" x="0" y=".995" color-interpolation-filters="sRGB" filterUnits="userSpaceOnUse"><feFlood flood-opacity="0" result="BackgroundImageFix"/><feBlend in="SourceGraphic" in2="BackgroundImageFix" result="shape"/><feColorMatrix in="SourceAlpha" result="hardAlpha" values="0 0 0 0 0 0 0 0 0 0 0 0 0 0 0 0 0 0 127 0"/><feOffset dy="3"/><feGaussianBlur stdDeviation="1"/><feComposite in2="hardAlpha" k2="-1" k3="1" operator="arithmetic"/><feColorMatrix values="0 0 0 0 1 0 0 0 0 1 0 0 0 0 1 0 0 0 0.25 0"/><feBlend in2="shape" result="effect1_innerShadow_284_170"/></filter></defs></svg>